<?xml version="1.0" standalone="no"?>
<!DOCTYPE svg PUBLIC "-//W3C//DTD SVG 20010904//EN"
 "http://www.w3.org/TR/2001/REC-SVG-20010904/DTD/svg10.dtd">
<svg version="1.0" xmlns="http://www.w3.org/2000/svg"
 width="1576.000000pt" height="1576.000000pt" viewBox="0 0 1576.000000 1576.000000"
 preserveAspectRatio="xMidYMid meet">
<metadata>
Created by potrace 1.14, written by Peter Selinger 2001-2017
</metadata>
<g transform="translate(0.000000,1576.000000) scale(0.100000,-0.100000)"
fill="#000000" stroke="none">
<path d="M1615 13713 c-241 -31 -450 -108 -655 -240 -392 -254 -630 -650 -680
-1133 -6 -61 -10 -1918 -10 -5186 0 -4166 2 -5093 13 -5108 12 -17 307 -18
6918 -17 7650 2 6989 -4 7209 67 235 75 496 244 674 436 232 249 351 543 376
926 10 161 14 10219 4 10246 -6 15 -623 16 -6913 15 -3798 -1 -6919 -4 -6936
-6z m11810 -3533 c103 -21 296 -85 490 -160 219 -85 303 -62 364 99 26 70 46
91 87 91 66 0 62 43 63 -739 l2 -709 -23 -16 c-12 -9 -32 -16 -43 -16 -46 0
-56 21 -87 169 -33 165 -76 306 -124 406 -154 328 -457 564 -807 630 -100 19
-312 19 -409 1 -282 -54 -480 -236 -548 -502 -64 -248 30 -446 312 -661 189
-143 344 -237 793 -483 413 -226 619 -352 762 -466 354 -283 504 -643 438
-1052 -75 -459 -361 -787 -825 -943 -375 -125 -714 -114 -1195 41 -219 71
-412 120 -470 120 -79 0 -134 -63 -165 -188 -8 -31 -18 -45 -36 -52 -29 -11
-68 -4 -84 15 -15 19 -14 1413 1 1432 17 19 83 16 101 -4 9 -10 32 -90 53
-178 49 -209 79 -303 127 -400 55 -108 89 -157 172 -244 168 -175 371 -286
626 -343 90 -20 131 -23 295 -23 161 1 203 4 277 23 226 56 401 187 497 372
99 190 95 410 -11 614 -33 62 -66 105 -143 182 -139 141 -191 175 -895 573
-417 236 -641 385 -794 531 -169 162 -265 312 -320 502 -110 381 3 781 301
1069 177 171 381 270 668 323 117 22 416 15 550 -14z m-11037 -66 c15 -10 22
-25 22 -47 0 -54 -10 -60 -113 -67 -96 -8 -185 -38 -231 -78 -37 -33 -66 -112
-66 -183 0 -112 84 -387 308 -1014 56 -154 159 -446 230 -650 301 -862 427
-1213 433 -1207 6 7 160 443 528 1496 177 506 182 526 141 622 -11 26 -57 151
-102 278 -129 370 -198 506 -303 605 -90 83 -198 130 -302 131 -67 0 -101 47
-73 101 10 19 30 19 826 19 l814 0 12 -25 c8 -18 9 -35 2 -53 -11 -30 -27 -35
-154 -51 -124 -14 -187 -38 -237 -87 -51 -51 -58 -81 -50 -218 9 -163 64 -355
242 -846 57 -157 237 -662 399 -1123 163 -461 299 -843 302 -849 7 -11 29 48
215 587 375 1079 675 1968 700 2070 37 151 39 257 8 323 -39 80 -167 138 -329
149 -47 3 -91 10 -97 16 -15 11 -17 75 -4 96 12 19 1240 18 1253 -1 5 -7 7
-29 6 -48 -4 -42 -25 -54 -121 -68 -92 -14 -169 -55 -240 -126 -104 -105 -164
-251 -462 -1126 -101 -294 -264 -769 -363 -1055 -99 -286 -284 -826 -412
-1200 -140 -409 -241 -689 -253 -702 -24 -26 -91 -32 -121 -10 -11 8 -95 232
-222 587 -510 1436 -749 2100 -755 2100 -3 0 -48 -116 -98 -257 -174 -485
-841 -2383 -841 -2393 0 -6 -9 -19 -20 -30 -23 -23 -87 -27 -113 -7 -9 7 -268
715 -597 1637 -682 1905 -757 2114 -804 2238 -61 165 -122 243 -228 298 -60
30 -149 54 -205 54 -68 0 -106 55 -70 103 11 16 71 17 762 20 413 1 752 3 755
5 3 1 16 -5 28 -14z m6975 -4 c326 -17 510 -47 728 -120 395 -131 644 -364
759 -708 93 -281 52 -595 -108 -828 -107 -156 -237 -263 -446 -365 l-138 -68
43 -11 c99 -25 262 -84 339 -121 384 -185 599 -566 550 -974 -54 -456 -363
-818 -821 -964 -311 -98 -535 -111 -1981 -111 l-997 0 -15 22 c-9 12 -16 32
-16 45 0 41 22 50 150 57 234 14 345 69 406 201 49 107 49 90 49 1810 0 1709
1 1675 -47 1803 -28 76 -104 152 -180 180 -64 24 -189 42 -290 42 -56 0 -69 3
-78 19 -16 30 -12 59 10 81 20 20 33 20 953 20 512 0 1021 -5 1130 -10z"/>
<path d="M8899 9899 c-58 -4 -166 -17 -240 -28 -118 -18 -137 -24 -156 -46
l-23 -26 0 -770 c0 -841 -2 -814 57 -837 51 -19 66 -21 309 -33 498 -23 823
24 1024 149 89 55 212 176 259 255 125 212 147 509 53 749 -126 326 -493 548
-968 588 -133 11 -163 11 -315 -1z"/>
<path d="M8631 7920 c-102 -6 -117 -10 -133 -30 -17 -21 -18 -64 -18 -852 0
-915 -3 -876 62 -897 18 -6 89 -20 158 -30 374 -60 722 -55 978 14 261 70 468
219 588 424 160 273 145 623 -37 893 -168 249 -425 395 -819 464 -108 19 -581
28 -779 14z"/>
</g>
</svg>
