<svg xmlns="http://www.w3.org/2000/svg" viewBox="0 0 60 81.73"><defs><style>.cls-1{fill:#1b1e1d;}.cls-2{fill:#f1cfac;}.cls-3{fill:#3a3937;}.cls-4{fill:#eef0f0;}.cls-5{fill:red;}</style></defs><g id="Layer_2" data-name="Layer 2"><g id="Layer_1-2" data-name="Layer 1"><path class="cls-1" d="M9.62,81.69c-.89.18-1.14-.21-1.13-1.1,0-2.51,0-5,0-7.53,2.88-2,2.85-4,0-6,0-5.76,0-11.51.07-17.26,0-1.25-.59-.56-1-.32-5,3-5.67,8.5-1.65,15.31,1.16,2-.06,2.2-1.16,2.85-1.47.87-1.36-.72-1.65-1.23-5.24-9.33-3.91-14.87,5-20.86.74-.5-.19-1.67,1-1.75l3.55.29,0,.07.07,0,.08.06,8.58,8.47,3,3.16,3-3.14q2.57-2.55,5.12-5.11a20.81,20.81,0,0,0,7.85-.71c-.35,3.75,2.72,5,5,6.71,2,1.44,3.55.61,4.76-1.39.12-.2,1.54.35,2.33.64A2.38,2.38,0,0,1,52.17,54c-2.41,4.12-6.44,4.16-11,.13a6,6,0,0,0-.83-.55c0,.31-.08.62-.08.93q0,13,0,26a2.31,2.31,0,0,1-.41,1.1"/><path class="cls-1" d="M24.41,13.88a66.84,66.84,0,0,1-14-1.29c-.83-.17-1.1-.4-.78-1.29C10.72,8.18,11.8,5,13.94,2.42,16.7-.94,20.4-.77,22.69,2.9c1.2,1.93,2,2,3.27,0C28.3-.81,32-1,34.77,2.48c2.19,2.72,3.33,6,4.41,9.23.32,1-.49.75-.85.84A62.52,62.52,0,0,1,24.41,13.88Z"/><path class="cls-2" d="M12.64,44.08l-3.55-.29c.08-4.57.15-9.14.24-13.71,0-1,.15-2,.23-3l.73-1.81,8.41.62.7,0,.73.07c-2.14,6.79-.8,12.73,4.31,17.76h-.26c-3.79.24-7.62-.56-11.37.43l-.08-.06.08-.17Zm3.19-13.91a1.22,1.22,0,0,0-1.21,1.34,1.16,1.16,0,0,0,1.32,1.21,1.17,1.17,0,0,0,1.23-1.31A1.26,1.26,0,0,0,15.83,30.17Z"/><path class="cls-3" d="M24.44,43.79c-5.11-5-6.45-11-4.31-17.76,1.23-3.06,3.56-5.29,5.75-7.63,4.5-2.1,9.11-3.52,14.06-1.72a47.75,47.75,0,0,1,4.62,2.22L48,22.17c4,6.38,4.28,12.71,0,19.16-.6.91,1.05,1.51,1.6,2.29a22.32,22.32,0,0,0,1.91,2.11,4.76,4.76,0,0,0-1.86,3.09c-2.41-4.14-5.5-5-9.37-1.92a20.81,20.81,0,0,1-7.85.71l-5.81-1.9-2-1.7-.19-.23ZM35,46a14.21,14.21,0,1,0-14.16-14.1A14.22,14.22,0,0,0,35,46Z"/><path class="cls-1" d="M25.88,18.4C23.69,20.74,21.36,23,20.13,26L19.4,26l-.7,0-8.41-.62-1.17-.25c-2.48-.71-5-1.35-7.42-2.17a2.09,2.09,0,0,1-1.26-1.5A2.2,2.2,0,0,1,1.7,19.88c1.69-.69,3.46-1.16,5.19-1.74C13.25,16,19.54,19.38,25.88,18.4Z"/><path class="cls-2" d="M8.45,67.05c2.88,2,2.91,4,0,6-2,0-3.64-.46-3.7-2.82S6.34,67.09,8.45,67.05Z"/><path class="cls-3" d="M55.63,50c1,1.14,2.06,2.33,3.17,3.41s1.93,1.76.25,3.24-2.07-.18-2.76-.84c-1.4-1.35-2.65-2.84-4-4.28C53.76,51.68,54.62,50.65,55.63,50Z"/><path class="cls-2" d="M55.63,50c-1,.7-1.87,1.73-3.31,1.53a3.6,3.6,0,0,1-2.66-2.66,4.76,4.76,0,0,1,1.86-3.09C54.82,45.25,55.91,46.94,55.63,50Z"/><path class="cls-1" d="M48,22.17l-3.4-3.27C45.91,19.77,48.68,19.16,48,22.17Z"/><path class="cls-3" d="M9.12,25.06l1.17.25-.73,1.81C9.41,26.43,9.26,25.74,9.12,25.06Z"/><path class="cls-4" d="M18.94,80.54c0-.7.22-.87.88-.86,3,0,6,0,9,0,.53,0,.91,0,.9.74"/><path class="cls-5" d="M24.63,44l2,1.7.69,7-3,3.14-3-3.16c.75-3-.91-6.8,2.79-8.9h.26Z"/><path class="cls-4" d="M24.18,43.8c-3.7,2.1-2,5.88-2.79,8.9l-8.58-8.47C16.56,43.24,20.39,44,24.18,43.8Z"/><path class="cls-4" d="M27.32,52.72l-.69-7,5.81,1.9Q29.89,50.18,27.32,52.72Z"/><path class="cls-4" d="M12.64,44.08l.17-.08-.08.17-.07,0Z"/><path class="cls-3" d="M15.83,30.17a1.26,1.26,0,0,1,1.34,1.24,1.17,1.17,0,0,1-1.23,1.31,1.16,1.16,0,0,1-1.32-1.21A1.22,1.22,0,0,1,15.83,30.17Z"/><path class="cls-3" d="M18.7,25.93l.7,0Z"/><path class="cls-2" d="M35,46a14.21,14.21,0,1,1,14.31-14.2A14.21,14.21,0,0,1,35,46Zm4.83-14.21c-.29-2.94-1.9-4.71-4.76-4.69a4.33,4.33,0,0,0-4.67,4.79,4.31,4.31,0,0,0,4.74,4.58C38.08,36.48,39.56,34.65,39.85,31.83Zm7.37-1.24A11.81,11.81,0,0,0,43.05,23c-.2-.15-.61,0-.93,0,.07.31,0,.75.22.91a11.14,11.14,0,0,1,3.73,6.61,1,1,0,0,0,.67.57C46.87,31.05,47.12,30.69,47.22,30.59Zm.2,2.34c-.3-.32-.59-.84-.8-.81-1.09.15-.38,1.16-.7,1.73-.09.17.34.89.47.87C47.46,34.6,46.75,33.53,47.42,32.93Z"/><path class="cls-2" d="M24.63,44l-.19-.23Z"/><path class="cls-3" d="M39.85,31.83c-.29,2.82-1.77,4.65-4.69,4.68a4.31,4.31,0,0,1-4.74-4.58,4.33,4.33,0,0,1,4.67-4.79C38,27.12,39.56,28.89,39.85,31.83Z"/><path class="cls-4" d="M47.22,30.59c-.1.1-.35.46-.48.42a1,1,0,0,1-.67-.57,11.14,11.14,0,0,0-3.73-6.61c-.19-.16-.15-.6-.22-.91.32,0,.73-.11.93,0A11.81,11.81,0,0,1,47.22,30.59Z"/><path class="cls-4" d="M47.42,32.93c-.67.6,0,1.67-1,1.79-.13,0-.56-.7-.47-.87.32-.57-.39-1.58.7-1.73C46.83,32.09,47.12,32.61,47.42,32.93Z"/></g></g></svg>