<svg width="130" xmlns="http://www.w3.org/2000/svg" viewBox="0 0 393.84 306.48">
  <defs>
    <style>
      .a {
        fill: #fdfdfd;
      }

      .b {
        fill: #fe0000;
      }

      .c {
        fill: #fdfcfc;
      }
    </style>
  </defs>
  <g>
    <path class="a" d="M354.24,306.45q-176.53,0-353.07,0c-.95,0-1.17-.17-1.17-1.16Q0,172,0,38.63c.56-1.26.39-2.66.74-4a48,48,0,0,1,2.92-8.48A49.68,49.68,0,0,1,10.16,16,45.63,45.63,0,0,1,24.89,4.55,38.71,38.71,0,0,1,41.69.26,4,4,0,0,0,43.91,0Q218.29,0,392.67,0c.95,0,1.17.17,1.17,1.16q0,131.43,0,262.85a6.25,6.25,0,0,0-.25,2.35,42.4,42.4,0,0,1-3.79,14.13,46.16,46.16,0,0,1-9.1,13.08,44.27,44.27,0,0,1-17.51,10.9,26,26,0,0,1-8.6,1.82A.61.61,0,0,0,354.24,306.45Z"/>
    <path class="b" d="M179.65,299.55q-85.61,0-171.22,0c-1.18,0-1.6-.19-1.6-1.51q.06-126.18,0-252.35C6.87,29.58,15.74,16.2,30.59,10A36.68,36.68,0,0,1,43.88,7.25c.52,0,1,0,1.56,0H385c1.61,0,1.61,0,1.61,1.55q0,126.23-.05,252.46c0,16-7.62,27.59-21.85,34.78a34.21,34.21,0,0,1-14.56,3.5c-.88,0-1.75,0-2.63,0Z"/>
    <path class="a" d="M57.8,86.06l3.36-9.56c1.2-3.42,2.37-6.85,3.59-10.26a2.45,2.45,0,0,0,0-1.95c-1-2.42-1.61-5-2.84-7.35a5.23,5.23,0,0,0-4.67-3.2c-.48,0-.6-.21-.61-.65s.31-.55.7-.55H72.9c.45,0,.77,0,.75.63s-.31.53-.7.56c-3.78.29-4.49,1.22-3.62,5a94.76,94.76,0,0,0,3.33,10c2,5.72,4,11.42,6.13,17.4.87-2.47,1.65-4.69,2.42-6.91q3.2-9.27,6.36-18.54a21.86,21.86,0,0,0,.78-2.88c.47-2.33-.21-3.32-2.55-3.84a3,3,0,0,1-.69-.15c-.48-.22-1.5.5-1.39-.7.09-1,1-.47,1.42-.48,3.52-.06,7,0,10.55,0,.36,0,.92-.29,1,.47s-.4.69-.89.74c-2.17.23-3.39,1.64-4.17,3.5C90,61.16,88.79,65.21,87.4,69.2,84.23,78.26,81.13,87.35,78,96.43c-.16.47-.32.72-.88.76-.73.06-.86-.43-1-.91L70.47,80.4c-1.28-3.6-2.57-7.2-4-11.08-.71,2-1.35,3.71-2,5.45Q60.74,85.54,57,96.31c-.16.45-.2.89-.89.88s-.74-.42-.9-.88Q48.4,77.4,41.63,58.5c-.18-.53-.4-1-.59-1.57a4.53,4.53,0,0,0-4.2-3.19c-.41,0-.89.11-.89-.61s.49-.59.9-.59c4.75,0,9.51,0,14.26,0,.38,0,.92-.23,1,.53s-.53.62-1,.64c-2.63.13-3.72,1.48-3.08,4,1,3.95,2.55,7.71,3.88,11.55C53.8,74.76,55.75,80.24,57.8,86.06Z"/>
    <path class="a" d="M65.67,146.91c3.66.85,6.72,2.26,8.52,5.55,2.77,5,.45,11.82-5,14.68A19,19,0,0,1,61.08,169c-8,.39-16.06.11-24.1.18-.39,0-.8.06-.83-.56s.42-.62.86-.64a17.17,17.17,0,0,0,2-.15,3.5,3.5,0,0,0,3.17-3.37c.12-1.23.21-2.47.21-3.7q0-13.12,0-26.25c0-1.24,0-2.47-.16-3.71-.28-2.86-1.47-4-4.35-4.16-.36,0-.72,0-1.08,0s-.69,0-.69-.55.25-.7.73-.66c.2,0,.4,0,.6,0,5.71,0,11.43,0,17.14,0,3.72,0,7.44.15,11,1.46a11.25,11.25,0,0,1,7,6.33,9.74,9.74,0,0,1-4.83,12.67C67.12,146.25,66.48,146.53,65.67,146.91Z"/>
    <path class="a" d="M291.56,216.71a10,10,0,0,1,1.67,6.88,10.11,10.11,0,0,1-8.44,8.74,15.11,15.11,0,0,1-6.42-.13,1.72,1.72,0,0,0-2.07.65c-.14.19-.32.35-.47.54-1.74,2.13-1.21,3.63,1.51,4,3.09.46,6.23.21,9.34.45,1.47.12,2.95.19,4.4.44,5.36.93,7.67,5.92,4.89,10.59a14.3,14.3,0,0,1-8.39,6.39c-5.74,1.74-11.41,1.62-16.82-1.33a3.45,3.45,0,0,1-.41-.25c-3-1.9-3.36-3.61-1.4-6.53a34.46,34.46,0,0,1,4.09-4.69c.45-.46.51-.74-.13-1a5.37,5.37,0,0,1-.88-.62,3.17,3.17,0,0,1-1-4.33,10.09,10.09,0,0,1,2.31-3c.71-.69,1.45-1.36,2.28-2.12a10.47,10.47,0,0,1-4.27-4c-3.42-6.27.53-14,7.86-15.3a13.63,13.63,0,0,1,9.48,1.54,2.56,2.56,0,0,0,1.37.29c2,0,4,0,6,0,1,0,1.41.34,1.44,1.38s-.39,1.53-1.45,1.51C294.59,216.69,293.17,216.71,291.56,216.71Z"/>
    <path class="a" d="M180.4,158.35a9.54,9.54,0,0,1-5.32-6.83,10.75,10.75,0,0,1,9.85-12.63,13.64,13.64,0,0,1,8.44,1.65,2.46,2.46,0,0,0,1.37.3c2,0,4.08,0,6.12,0,1,0,1.38.45,1.38,1.46s-.31,1.48-1.37,1.45c-1.43-.05-2.86,0-4.46,0a14.82,14.82,0,0,1,1.55,4.19c1,5.89-3.31,10.88-9.26,11.56a15.67,15.67,0,0,1-6.06-.36.88.88,0,0,0-1,.18,6.88,6.88,0,0,0-1.75,2.26c-.59,1.4-.17,2.34,1.32,2.72a22.12,22.12,0,0,0,4.88.46c3,.1,6.07.12,9.09.48a8.74,8.74,0,0,1,3.3,1c3.47,1.94,4.47,6,2.29,9.63a14.85,14.85,0,0,1-9.15,6.69A21.18,21.18,0,0,1,176,181.28l-.31-.17c-3.69-2.11-4.09-4-1.62-7.41a33.38,33.38,0,0,1,3.58-4c.55-.54.69-.9-.1-1.29a4.59,4.59,0,0,1-.78-.55,3.14,3.14,0,0,1-1-4.33,9.5,9.5,0,0,1,2-2.78C178.65,160,179.48,159.21,180.4,158.35Z"/>
    <path class="a" d="M65.27,205.06c0,2.2,0,4.39,0,6.59,0,.38.21.91-.54.93s-.68-.35-.76-.81a20.18,20.18,0,0,0-1-4.05,11.45,11.45,0,0,0-13-7.44,6.75,6.75,0,0,0-5.52,4.92c-.77,2.58.3,4.68,2.32,6.34a54.74,54.74,0,0,0,8.81,5.53,68.87,68.87,0,0,1,7.3,4.35c3.91,2.82,6,6.63,5.09,11.47-1,5.29-4.45,8.41-9.54,9.77a18.82,18.82,0,0,1-11.29-.85,35.66,35.66,0,0,0-3.8-1.06c-1.41-.31-2,.1-2.4,1.44-.14.44-.06,1.08-.9,1s-.48-.72-.48-1.1q0-6.42,0-12.83c0-.4-.29-1,.55-1s.71.48.82.91c.3,1.16.53,2.34.87,3.48,1.76,5.83,7.62,8.26,12.41,8a10.2,10.2,0,0,0,4.18-.94,6.83,6.83,0,0,0,2.18-10.88,15.15,15.15,0,0,0-4-3.07c-3.7-2.2-7.56-4.14-11.14-6.55a14.15,14.15,0,0,1-5.52-6,11.13,11.13,0,0,1,6.2-14.56c4.19-1.73,8.35-1.33,12.47.3.78.3,1.55.65,2.35.88,1.59.47,2.33.1,2.85-1.44.19-.55.36-1,1-.82s.36.7.37,1.07C65.29,200.74,65.27,202.9,65.27,205.06Z"/>
    <path class="a" d="M347.29,141.27c-.08-3.81.12-7.36-.21-10.9-.23-2.35-1.14-3-3.4-2.47a2.18,2.18,0,0,0-.23.09c-.4.11-.76.2-.94-.36s0-.71.47-.89c2.62-1.06,5.22-2.18,7.86-3.19,1.4-.54,1.73-.24,1.73,1.24v33.44a42.16,42.16,0,0,0,.22,5c.25,2.18,1.18,2.83,3.33,2.3l.35-.08c.36-.07.77-.38.9.31.08.46.05.7-.45.9-2.59,1-5.16,2.1-7.74,3.17A4,4,0,0,1,348,170c-.58.06-.77-.14-.75-.73.05-1.06,0-2.14,0-3.25-.47,0-.65.38-.88.61-5.33,5.28-13.31,4.37-17.39-2.25-3.77-6.11-3.17-12.41.31-18.5a13,13,0,0,1,7.87-6.58C340.75,138.35,344.13,138.58,347.29,141.27Z"/>
    <path class="a" d="M302.09,144.91c1.2-1.21,2.1-2.22,3.11-3.1a10.55,10.55,0,0,1,5.67-2.91c4.54-.54,7.38,1.92,8.34,6.52a31.49,31.49,0,0,1,.34,6.21c.06,4.32-.16,8.63.13,13,.16,2.35.88,3.09,3.2,3.35.23,0,.47.07.71.08.48,0,.44.34.45.67s-.13.53-.48.53H323c-4.16,0-8.31,0-12.47,0-.41,0-1,.27-1.06-.55s.56-.6,1-.64c2.91-.27,3.77-1.16,3.78-4.1,0-4.72,0-9.43,0-14.15a15.74,15.74,0,0,0-.43-3.55c-.64-2.74-2.42-4-5.21-3.44a11.33,11.33,0,0,0-6.21,3.82,1.13,1.13,0,0,0-.27.89c0,5.6,0,11.19.08,16.78.05,2.75.8,3.43,3.49,3.68a4,4,0,0,0,.6.05c.43,0,.65.16.64.64s-.27.59-.69.58c-1.32,0-2.64,0-4,0h-9c-.44,0-1,.17-1-.63s.55-.53.93-.58c2.62-.3,3.44-1.14,3.49-4,.08-5.07,0-10.15,0-15.22a17,17,0,0,0-.19-3.34c-.41-2.06-1.23-2.59-3.3-2.1-.45.11-.94.55-1.23-.3s.45-.8.83-1c2.39-1,4.79-2,7.19-3a4.55,4.55,0,0,1,.8-.23c.92-.18,1.37.07,1.3,1.16C302,141.51,302.09,143,302.09,144.91Z"/>
    <path class="a" d="M243.45,217.85a36.54,36.54,0,0,1,4-3.79,10.4,10.4,0,0,1,5.44-2.29,7.2,7.2,0,0,1,7.6,6.07,22.81,22.81,0,0,1,.47,4.52q0,6.46,0,12.94c0,.76,0,1.53.05,2.28.18,2.26,1.12,3.19,3.39,3.38.42,0,1-.21,1,.62s-.65.56-1.06.56q-6.24,0-12.47,0c-.42,0-1,.25-1-.59s.62-.55,1-.57c2.58-.12,3.62-1.1,3.66-3.7.1-5.27.13-10.54,0-15.82a10.8,10.8,0,0,0-.52-2.93,3.88,3.88,0,0,0-4.4-2.87c-2.84.3-4.94,1.9-6.83,3.86a1.39,1.39,0,0,0-.29,1.12q0,8,0,15.94c0,.24,0,.48,0,.72.12,2.58,1.1,3.53,3.72,3.67.43,0,1.12-.3,1.07.65s-.68.52-1.07.52q-6.3,0-12.59,0c-.43,0-1,.2-1-.62s.56-.53.94-.55c2.26-.14,3.11-.93,3.41-3.2a9.83,9.83,0,0,0,.13-1.19c0-5.88.19-11.75-.13-17.62-.14-2.56-1.15-3.28-3.57-2.62-.5.14-.79.18-1-.37s.18-.74.57-.9c2.59-1.05,5.17-2.11,7.76-3.13,1.43-.56,1.76-.32,1.76,1.16Z"/>
    <path class="a" d="M192.14,217.88a29.36,29.36,0,0,1,4.18-3.95c2.1-1.49,4.35-2.56,7-2,3.43.68,5.53,3.23,6,7.11a75,75,0,0,1,.24,8.74c0,3.11,0,6.23.06,9.35.09,2.78,1,3.67,3.51,3.87.39,0,.93-.2,1,.55s-.56.62-1,.63H200.44c-.41,0-.9.15-.92-.58s.49-.57.9-.59c2.82-.14,3.86-1.1,3.86-3.91,0-5.43.24-10.87-.14-16.3,0-.27-.07-.55-.11-.83-.67-4.46-3.74-4.93-7.05-3.71a12.51,12.51,0,0,0-4.44,3.18,1.52,1.52,0,0,0-.4,1.2c0,5.32,0,10.63,0,15.94a11.45,11.45,0,0,0,.14,1.55,2.76,2.76,0,0,0,2.63,2.76c.39.07.79.07,1.19.11s.81-.15.83.53-.37.66-.84.66H184.24c-.44,0-.88,0-1.32,0s-.62-.18-.62-.64.19-.54.58-.55a8.43,8.43,0,0,0,1.42-.13,2.5,2.5,0,0,0,2.16-2.12,11.43,11.43,0,0,0,.33-2c0-5.91.25-11.83-.15-17.73-.18-2.69-1-3.27-3.65-2.6-.5.12-.73.09-.91-.39s0-.72.47-.89c2.66-1.08,5.31-2.18,8-3.23,1.27-.49,1.61-.21,1.61,1.14Z"/>
    <path class="a" d="M123.63,71.94A31.71,31.71,0,0,1,127.77,68a9.44,9.44,0,0,1,6-2.16c3.56.14,6,2.24,6.88,5.9a23.91,23.91,0,0,1,.49,5.47c.06,4.8-.17,9.59.13,14.38.15,2.44,1,3.24,3.43,3.37.47,0,1-.09.94.7s-.6.49-1,.5H131.93c-.35,0-.92.29-1-.5s.46-.67.94-.69c2.88-.1,3.83-1.06,3.84-4q0-7.14,0-14.27a19.5,19.5,0,0,0-.24-2.74c-.59-3.63-2.54-5.08-6.73-3.82A11.35,11.35,0,0,0,124,73.5a1.41,1.41,0,0,0-.4,1.08c.07,5.71-.13,11.43.12,17.14.1,2.2,1.1,3.15,3.28,3.25a5.89,5.89,0,0,0,.84,0c.51,0,.57.28.58.69s-.24.53-.6.51H114.77c-.37,0-.93.27-1-.5s.46-.67.94-.69c2.22-.1,2.86-.66,3.35-2.8a9.67,9.67,0,0,0,.18-2.14q0-7.68,0-15.35a13.33,13.33,0,0,0-.1-1.79c-.37-2.59-1-3-3.61-2.46-.5.11-.81.09-1-.46s.23-.69.57-.83c2.58-1.06,5.16-2.13,7.76-3.14,1.45-.56,1.78-.3,1.78,1.19Z"/>
    <path class="a" d="M281.07,163.88a39,39,0,0,1-5,4.56c-3.87,2.73-8.92,1.91-11.14-1.82A11,11,0,0,1,263.6,161c-.05-5,0-10-.07-15a19.09,19.09,0,0,0-.16-2.27,2.84,2.84,0,0,0-2.8-2.74,11.45,11.45,0,0,0-1.55-.14c-.44,0-.52-.23-.51-.6s.08-.62.52-.61c3.08,0,6.16,0,9.24,0,.83,0,.57.62.57,1,0,6.15,0,12.31,0,18.46,0,1,.09,1.91.17,2.86.3,3.68,3.86,4.78,6.56,3.85a14.44,14.44,0,0,0,5.18-3.58,1.32,1.32,0,0,0,.3-1.1c0-5.35,0-10.71,0-16.06,0-3-.76-3.77-3.74-4.16-.45-.05-1.11.13-1-.75s.67-.53,1.07-.53c2.6,0,5.2,0,7.8,0,1,0,1.27.22,1.26,1.23,0,5.88,0,11.75,0,17.63,0,1.51.05,3,.16,4.55.17,2.42,1.13,3.08,3.47,2.52.27-.07.64-.41.86-.07s.75.84-.14,1.19c-2.63,1-5.23,2.16-7.87,3.19-1.48.57-1.81.31-1.81-1.24Z"/>
    <path class="a" d="M108,163.23a2.58,2.58,0,0,1-.69,2.66c-1.32,1.45-2.64,2.9-4.58,3.54-2.65.87-4.51-.28-4.92-3-.07-.43-.13-.86-.21-1.37-1.65,1.19-3.18,2.41-4.83,3.44a7.46,7.46,0,0,1-7.85.46c-4.14-2.2-4.95-8.31-1.62-11.88a20.43,20.43,0,0,1,7.11-4.54c2.12-.91,4.27-1.78,6.43-2.58a1.06,1.06,0,0,0,.83-1.21,16.45,16.45,0,0,0-.54-4.73,4.42,4.42,0,0,0-3.85-3.14,4.78,4.78,0,0,0-4.76,1.56,3.11,3.11,0,0,0-.73,2.1,21.68,21.68,0,0,1,0,2.28,2.54,2.54,0,0,1-2.62,2.55,2.64,2.64,0,0,1-2.73-2.47c-.32-2.61,1.42-5.43,4.41-6.78a15.56,15.56,0,0,1,11.89-.35,6,6,0,0,1,4.15,5.61c.28,3,.13,6,.16,9,0,2.83,0,5.67.05,8.51a6.28,6.28,0,0,0,.1,1.3c.33,1.49,1.44,1.9,2.65,1C106.61,164.56,107.26,163.92,108,163.23Z"/>
    <path class="a" d="M256.24,153.86c-.32,5.47-2,10.37-6.58,13.74a13.49,13.49,0,0,1-20.07-5.2,17.58,17.58,0,0,1,2.93-19.68c6.2-6.29,19-5.62,23,6.17A15.73,15.73,0,0,1,256.24,153.86Z"/>
    <path class="a" d="M173.89,80.68c.32-4.29,2-9.14,6.54-12.38a13.78,13.78,0,0,1,21.1,7.41c2,6.27.6,12-3.58,17a13.49,13.49,0,0,1-22.39-3.65A17.87,17.87,0,0,1,173.89,80.68Z"/>
    <path class="a" d="M169.44,223.74c-3,0-6.07,0-9.11,0-1,0-1.17.32-1.13,1.21a14.83,14.83,0,0,0,3.24,9.19c4.2,5,12.62,5.38,15.71-2.31.13-.33-.06-1.13.76-.88.66.19.58.73.49,1.27-.76,4.71-5,9.54-9.13,10.47a12,12,0,0,1-13.61-6.31,18.73,18.73,0,0,1,.36-18.25c3.58-6.41,12.32-8.34,18-4.26,3.17,2.29,4.4,5.55,4.58,9.32,0,.77-.5.56-.89.57Z"/>
    <path class="a" d="M140.16,223.74h-9.35c-.41,0-.92-.16-.9.58.11,4.31,1.21,8.18,4.63,11.13,3.94,3.4,11.43,3.66,14.32-3.66.17-.41.14-1.42,1.11-.68.29.22.26.46.21.75-.6,4-4.2,9.78-9.31,10.83a12.39,12.39,0,0,1-13.48-6.22c-3.09-5.35-2.77-16,2.21-20.89,4.81-4.71,12.67-5.17,17.23-.81a12,12,0,0,1,3.48,8.29c.06.83-.46.67-.92.67Z"/>
    <path class="a" d="M110.58,153.51a14.56,14.56,0,0,1,7.89-13.21c4.79-2.63,10.88-1.82,14.32,1.74a6.58,6.58,0,0,1,1.57,2.51c.61,1.84,0,3.38-1.63,3.92a3.41,3.41,0,0,1-4.41-2c-.24-.8-.27-1.65-.46-2.47a3.58,3.58,0,0,0-3.62-3c-4-.25-6.86,2-7.95,6.59a17,17,0,0,0,1.94,13.15c3.48,5.7,10.86,5.79,14.52.2.54-.83.93-1.76,1.42-2.63.15-.26.11-.77.69-.59s.52.51.43.94c-1.25,6-5.35,10.42-10.53,11.25s-10.1-2.09-12.58-7.38C111,160,110.61,157.34,110.58,153.51Z"/>
    <path class="a" d="M74,227.35C74,221.1,76.46,216,82.37,213c4.64-2.35,10.48-1.46,13.79,1.92a6.1,6.1,0,0,1,1.72,3c.41,1.85-.37,3.25-2,3.59-2.06.44-3.82-.54-4.22-2.35a9.58,9.58,0,0,1-.21-1.17c-.24-3.77-3.16-4.54-6-3.93-3.26.71-4.81,3.18-5.62,6.09a16.88,16.88,0,0,0,2,13.8,8.36,8.36,0,0,0,14.28.08,20.91,20.91,0,0,0,1.58-3c.13-.31.26-.57.7-.38a.57.57,0,0,1,.4.73c-1.61,8-8.19,13.06-15,11.21-4.67-1.27-7.41-4.62-8.9-9.08A21.21,21.21,0,0,1,74,227.35Z"/>
    <path class="a" d="M250.64,91.3c0-1.43,0-2.87,0-4.31,0-.33-.26-.84.43-.9s.67.34.79.8c.77,3,2.12,5.59,4.93,7.18a7.66,7.66,0,0,0,4.95,1,4.35,4.35,0,0,0,3.94-3.18,4.71,4.71,0,0,0-1.6-5.08,25.93,25.93,0,0,0-5.39-3.31A48.08,48.08,0,0,1,254.22,81c-3.52-2.29-4.14-5-3.45-8.7A8.17,8.17,0,0,1,258,65.94a16.12,16.12,0,0,1,6.47.88c1.08.32,2.12.62,2.75-.74.16-.33.56-.27.88-.23s.28.43.28.68q0,4.31,0,8.63c0,.29.11.66-.41.69a.7.7,0,0,1-.84-.62,16.44,16.44,0,0,0-1.34-3.58,7,7,0,0,0-8-3.73,4.06,4.06,0,0,0-3.25,2.72,4.36,4.36,0,0,0,1.27,4.5,14,14,0,0,0,3.71,2.37c2.17,1.1,4.44,2,6.51,3.3,3.89,2.45,5.45,5.86,4.24,9.84-1.13,3.72-4.05,5.48-7.65,6.26-2.49.53-4.92-.08-7.34-.61-1.25-.27-2.47-.92-3.7.23-.39.36-1,.13-.94-.67C250.68,94.34,250.65,92.82,250.64,91.3Z"/>
    <path class="a" d="M149.28,91.3c0-1.32,0-2.64,0-4,0-.42-.43-1.1.44-1.24s.7.61.81,1c.8,2.91,2.17,5.4,4.89,7A7.41,7.41,0,0,0,161,95a4.3,4.3,0,0,0,3.39-3.2,4.63,4.63,0,0,0-1.38-4.7,22.46,22.46,0,0,0-5.65-3.56A42.87,42.87,0,0,1,152.85,81c-3.22-2.16-4.32-5-3.42-8.94A8.48,8.48,0,0,1,156.52,66a15.84,15.84,0,0,1,6.59.87c1.08.32,2.12.62,2.76-.74.15-.34.56-.29.86-.21s.25.45.25.71q0,4.24,0,8.51c0,.33.12.74-.47.76a.65.65,0,0,1-.74-.6,14.86,14.86,0,0,0-1.69-4.2,7.08,7.08,0,0,0-7.9-3.09,4.14,4.14,0,0,0-1.7,7.26,15.08,15.08,0,0,0,3.74,2.34,66.15,66.15,0,0,1,6.5,3.31c2.11,1.36,3.82,3.06,4.34,5.62.82,4-1.07,7.55-5,9.5-3.36,1.67-6.75,1.11-10.17.32-1.25-.28-2.47-1-3.7.21-.41.38-1,.11-.95-.67C149.31,94.33,149.28,92.81,149.28,91.3Z"/>
    <path class="a" d="M148.27,153.09c0,2.88,0,5.75.06,8.62,0,1,0,2.08.13,3.11.16,2.11,1,2.85,3,3.1.55.07,1.59-.41,1.55.7s-1.05.55-1.59.56c-4.11,0-8.22,0-12.34,0-.42,0-1,.23-1-.6s.49-.58.89-.64,1-.12,1.54-.21a2.48,2.48,0,0,0,2.23-2.3,19.06,19.06,0,0,0,.18-2.38q0-15.16,0-30.31a21.33,21.33,0,0,0-.17-3c-.26-1.84-1.28-2.45-3-1.93a2.69,2.69,0,0,0-.45.16c-.57.25-.74-.1-1-.54-.28-.6.21-.6.49-.71,2.53-1.07,5.06-2.15,7.61-3.15,1.54-.61,1.9-.33,1.9,1.28v26.24c0,.44,0,.87-.06,1.31A.65.65,0,0,1,148.27,153.09Z"/>
    <path class="a" d="M111.75,217.87a25.62,25.62,0,0,1,3.94-4.62c1.6-1.31,3.37-2,5.42-1.07a3.38,3.38,0,0,1,2.19,3.15,2.81,2.81,0,0,1-4.34,2.56c-.72-.42-1.39-.94-2.07-1.42a1.44,1.44,0,0,0-2,.18c-1.67,1.83-3.25,3.63-3.13,6.43.16,3.87,0,7.75,0,11.63,0,.64,0,1.28,0,1.92.14,2.73,1.4,4,4.14,4.33.38,0,.91-.19.91.58s-.57.6-1,.6q-6.53,0-13.07,0c-.4,0-1,.28-1-.56s.58-.58,1-.62c2.61-.27,3.58-1.21,3.59-3.81q0-9,0-18c0-2.67-1.17-3.49-3.77-2.83-.38.1-.72.34-.93-.27s.11-.79.55-1c2.66-1.07,5.32-2.17,8-3.21,1.28-.5,1.64-.22,1.64,1.11Z"/>
    <path class="a" d="M215.31,72a35.64,35.64,0,0,1,3.59-4.35,5.47,5.47,0,0,1,5-1.65,3.53,3.53,0,0,1,2.77,4.6,2.72,2.72,0,0,1-3.49,1.66,6.84,6.84,0,0,1-1.83-1.11c-1.77-1.29-2.4-1.24-3.8.47a8.58,8.58,0,0,0-2.32,6.18c.22,3.66.05,7.35.06,11,0,.72,0,1.44.08,2.16.24,2.61,1.52,3.85,4.15,4,.49,0,1-.06.91.71s-.61.48-1,.48c-4.39,0-8.79,0-13.19,0-.36,0-.92.28-1-.5s.46-.67.94-.7c2.64-.18,3.61-1.13,3.62-3.72q0-8.94,0-17.86c0-2.85-1-3.58-3.74-3-.41.09-.74.22-1-.33s.18-.76.59-.92c2.59-1,5.16-2.12,7.76-3.13,1.51-.58,1.8-.35,1.8,1.27Z"/>
    <path class="a" d="M214.21,145.37a28.65,28.65,0,0,1,2.87-4c1.43-1.53,3-2.73,5.3-2.51a3.65,3.65,0,0,1,3.32,4.46,2.68,2.68,0,0,1-3.87,1.76,20.14,20.14,0,0,1-2.3-1.5,1.55,1.55,0,0,0-2.25.2c-1.74,1.89-3.25,3.8-3.12,6.68.19,3.91,0,7.83.06,11.74a13.94,13.94,0,0,0,.18,2.14c.39,2.37,1.37,3.28,3.78,3.58l.47.05c.41,0,.79,0,.78.66s-.38.59-.8.59h-3.12c-3.39,0-6.78,0-10.18,0-.41,0-1,.25-1-.58s.57-.62,1-.68c2.78-.38,3.57-1.15,3.57-3.93,0-6.07.21-12.14-.13-18.2-.14-2.34-1.2-3-3.54-2.5-.39.08-.87.54-1.11-.31s.35-.75.74-.91l7.3-3a4.67,4.67,0,0,1,.8-.26c.89-.17,1.38,0,1.31,1.13C214.13,141.66,214.21,143.36,214.21,145.37Z"/>
    <path class="a" d="M148.27,153.09v-.66c.33.18.5-.07.71-.25l8.71-8a5.47,5.47,0,0,0,.87-1c.63-1,.16-1.94-1.14-2.32-.4-.11-.92,0-.85-.71s.63-.47,1-.47c3.63,0,7.27,0,10.9,0,.41,0,.93-.16.91.58s-.47.52-.84.54a10.21,10.21,0,0,0-6.5,2.69c-2.65,2.37-5.25,4.8-7.9,7.17-.46.41-.47.69-.09,1.16,3.53,4.39,6.9,8.9,10.56,13.18,1.47,1.72,3.14,3.08,5.57,3,.45,0,.78.08.75.66s-.43.56-.83.56H157.4c-.32,0-.77.16-.82-.41,0-.36-.05-.66.43-.84,1.91-.69,2.12-1.29.87-2.94-2.33-3.08-4.74-6.11-7.12-9.17l-1.85-2.35C148.75,153.28,148.64,153,148.27,153.09Z"/>
    <path class="a" d="M107,79.15c0,4,0,8.07,0,12.1,0,2.65,1,3.55,3.59,3.73.52,0,.81.1.79.72s-.52.48-.86.48H97.91c-.37,0-.81.16-.82-.52s.35-.65.83-.68c2.53-.15,3.53-1.1,3.54-3.65,0-6,0-11.9,0-17.85a7.79,7.79,0,0,0-.09-1c-.35-2.07-1.2-2.65-3.24-2.2-.2.05-.39.12-.58.18-.48.15-.6-.2-.76-.53s0-.56.35-.71c2.77-1.11,5.52-2.29,8.31-3.34,1.17-.44,1.47-.12,1.48,1.13v12.1Z"/>
    <path class="a" d="M226.68,224.79q0,5.46,0,10.91a13.74,13.74,0,0,0,.11,2c.31,2.27,1.15,3.05,3.41,3.23.42,0,1-.2,1,.63s-.65.55-1.06.55q-6.1,0-12.22,0c-.41,0-1,.27-1.06-.56s.59-.58,1-.61c2.25-.17,3.12-1,3.37-3.24a67.76,67.76,0,0,0,.12-7.54c0-3.8.13-7.59-.17-11.38-.19-2.39-1.15-3.11-3.46-2.48-.5.13-.88.3-1.12-.38s.35-.76.74-.92c2.46-1,4.94-2,7.41-3a4.24,4.24,0,0,1,.91-.25c.72-.12,1.05.08,1,.93C226.66,216.72,226.68,220.76,226.68,224.79Z"/>
    <path class="a" d="M245,58c-.1,4.69-3.37,8.34-7.82,10-.18.07-.43.2-.49-.06a1.37,1.37,0,0,1,.11-1.26,4,4,0,0,1,.77-.55,16.93,16.93,0,0,0,2.92-2.27A5,5,0,0,0,242,60c-.07-1.59-.66-2-2.21-1.56a3.41,3.41,0,0,1-3.65-.75,3.49,3.49,0,0,1-.77-3.67c.52-1.81,3.24-2.92,5.33-2.25A6.27,6.27,0,0,1,245,58Z"/>
    <path class="a" d="M224,196.39a3.19,3.19,0,0,1,3.27,3.22,3.26,3.26,0,0,1-3.25,3.27,3.35,3.35,0,0,1-3.3-3.26A3.26,3.26,0,0,1,224,196.39Z"/>
    <path class="c" d="M104.22,56.92a3.26,3.26,0,0,1,0-6.51,3.25,3.25,0,0,1,3.25,3.27A3.19,3.19,0,0,1,104.22,56.92Z"/>
    <path class="b" d="M48.64,157.05v-8c0-.5,0-1,.66-1,4.31-.25,8.62-.54,12.74,1.17,5.42,2.25,7.64,8.56,4.61,13.14a10.16,10.16,0,0,1-7.3,4.3,28.8,28.8,0,0,1-9.75-.4c-.85-.16-1-.54-1-1.28C48.66,162.32,48.64,159.69,48.64,157.05Z"/>
    <path class="b" d="M48.64,136.72c0-2.51,0-5,0-7.54,0-.53.07-.9.7-1,4.19-.73,8.36-1,12.3,1a8.3,8.3,0,0,1,5,7.36,7.94,7.94,0,0,1-3.75,7.42,9.89,9.89,0,0,1-4.28,1.37,45,45,0,0,1-8.61,0c-1.05-.08-1.39-.47-1.35-1.55C48.71,141.43,48.64,139.08,48.64,136.72Z"/>
    <path class="b" d="M282.72,252.49a18,18,0,0,1-8-1.7c-2.42-1.28-2.92-2.86-1.73-5.33.09-.18.19-.36.29-.53,1-1.77,2.06-3,4.63-2.59,4.12.61,8.34.57,12.52.79a9.28,9.28,0,0,1,2.22.43,2.69,2.69,0,0,1,1.82,4,8,8,0,0,1-5.24,4.2A21.68,21.68,0,0,1,282.72,252.49Z"/>
    <path class="b" d="M287.66,223.68a11.7,11.7,0,0,1-.5,3.59A5.28,5.28,0,0,1,278,229c-2.06-2.6-2.38-5.67-2.29-8.84a9.18,9.18,0,0,1,.78-3.6,5.17,5.17,0,0,1,9.19-.83C287.26,218,287.67,220.58,287.66,223.68Z"/>
    <path class="b" d="M187.63,179.56a20,20,0,0,1-7.8-1.56c-2.87-1.4-3.43-3.14-1.87-5.9.08-.14.17-.27.24-.42a3.77,3.77,0,0,1,4.59-2.28c3.5.62,7.09.36,10.64.61a24.82,24.82,0,0,1,3.55.47c2.4.51,3.24,2.35,2.06,4.51a8.4,8.4,0,0,1-5.93,4.07A23.63,23.63,0,0,1,187.63,179.56Z"/>
    <path class="b" d="M192.43,150.25a12.33,12.33,0,0,1-.51,4.13,5.27,5.27,0,0,1-9.19,1.62c-2-2.65-2.38-5.76-2.23-9a9,9,0,0,1,.89-3.7,5.17,5.17,0,0,1,8.83-.87A12,12,0,0,1,192.43,150.25Z"/>
    <path class="b" d="M347.27,155.78c0,2.32,0,4.63,0,6.95a1.72,1.72,0,0,1-.58,1.35c-3.18,3.15-7.16,3.2-10.41.09a12.83,12.83,0,0,1-3.73-8.32,19.21,19.21,0,0,1,1.32-10.3,9,9,0,0,1,2.54-3.28,6.21,6.21,0,0,1,9.33,1.6,9.73,9.73,0,0,1,1.51,5.21C347.29,151.32,347.27,153.55,347.27,155.78Z"/>
    <path class="b" d="M97.7,157.33c0,1.55,0,3.11,0,4.66a1.48,1.48,0,0,1-.71,1.39,16.77,16.77,0,0,1-3.91,2.27,4.58,4.58,0,0,1-6.22-3.29,5.93,5.93,0,0,1,1.79-6.1,21.27,21.27,0,0,1,6.64-3.7c2.38-1,2.4-1,2.4,1.65Z"/>
    <path class="b" d="M250.21,157.27a15.91,15.91,0,0,1-1.16,6.43,6.5,6.5,0,0,1-10.63,2.14,15.42,15.42,0,0,1-4.16-8.71,21.52,21.52,0,0,1,.51-11.45,6.48,6.48,0,0,1,5.17-4.63,6.74,6.74,0,0,1,6.95,3C249.55,147.73,250.22,151.92,250.21,157.27Z"/>
    <path class="b" d="M196.37,83.28a18.78,18.78,0,0,1-1.12,7.3,6.52,6.52,0,0,1-11.15,1.83,16.92,16.92,0,0,1-3.88-9.1,21.08,21.08,0,0,1,.63-10.51A6.62,6.62,0,0,1,186.66,68a6.83,6.83,0,0,1,6.43,3.19C195.49,74.51,196.23,78.34,196.37,83.28Z"/>
    <path class="b" d="M165.91,221.93c-2,0-3.91,0-5.86,0-.47,0-.89,0-.8-.67.56-4.34,3.84-7.44,7.67-7.14a6.73,6.73,0,0,1,5.87,7.34c-.11.65-.56.46-.9.46C169.89,221.94,167.9,221.93,165.91,221.93Z"/>
    <path class="b" d="M136.69,221.93h-5.86c-.41,0-.93.15-.84-.6.46-4.17,3.54-7.12,6.89-7.21a6.6,6.6,0,0,1,6.62,7.3c-.07.66-.47.51-.83.51Z"/>
  </g>
</svg>
